<svg width="300" height="54" fill="none" xmlns="http://www.w3.org/2000/svg"><g clip-path="url(#clip0_142_267)"><path d="M0.171875 26.5978C0.171875 9.49315 15.8896 0.84668 35.7508 0.84668C55.612 0.84668 71.1414 9.49315 71.1414 26.5978C71.1414 43.7024 55.612 52.1434 35.7508 52.3488C15.9067 52.5372 0.171875 43.7024 0.171875 26.5978Z" fill="#FDFDFD"/><path d="M65.8685 21.0319L65.1323 18.0527L64.9439 17.9842L52.2225 22.8297H30.9744V22.6242C30.9744 22.6242 31.334 22.2647 31.6593 21.5284C32.0874 20.3984 32.3271 19.08 32.3271 17.5219V9.40625H31.4538L26.2831 14.7654H18.1674L12.9966 9.40625H12.1234V17.5219C12.1234 19.1656 12.3974 20.5867 12.8939 21.7681C13.7157 23.583 14.7602 24.0967 14.7602 24.0967V24.3022H13.6986L10.9591 21.4428H10.0859V25.9458C10.0859 27.3498 10.4113 28.4627 10.9763 29.3017C11.5413 30.1578 12.3631 30.7399 13.3219 31.1166C13.8527 31.3221 14.4862 31.3905 14.7773 31.3905V31.596H11.2673L11.1132 31.7501V33.3424L11.3358 33.6335L14.7602 35.4313V37.9653L12.2262 39.7117L12.1234 39.9V41.5437L12.2775 41.6978H14.7602C18.818 41.6636 22.1054 38.3591 22.1054 34.2841V31.459L24.5367 34.3868L21.8143 45.2763L21.9684 45.4304H26.4714L26.6769 45.3619L33.9194 36.6469H45.7505L52.993 45.3619L53.1984 45.4304H57.7014L57.8555 45.2763L53.7977 28.9935L65.8343 21.2716L65.9028 21.049L65.8685 21.0319Z" fill="black"/><path d="M23.9716 19.7322C23.7833 19.4241 23.8175 19.0816 24.2113 18.7563C24.3483 18.6365 25.7351 17.6776 27.8582 17.5235C28.4061 17.4893 28.7486 17.7461 28.7828 18.2427C28.8171 18.7221 28.5945 19.0131 27.9438 19.0645C26.3686 19.1843 24.9989 19.8521 24.7763 19.9548C24.5195 20.0576 24.1771 20.0576 23.9716 19.7322Z" fill="#FDD000"/><path d="M20.4957 19.7322C20.6841 19.4241 20.6498 19.0816 20.256 18.7563C20.1191 18.6365 18.7322 17.6776 16.6091 17.5235C16.0612 17.4893 15.7188 17.7461 15.6845 18.2427C15.6503 18.7221 15.8729 19.0131 16.5235 19.0645C18.0987 19.1843 19.4684 19.8521 19.691 19.9548C19.9478 20.0576 20.2903 20.0576 20.4957 19.7322Z" fill="#FDD000"/><path d="M18.0643 27.8646C17.9273 27.6421 17.9444 27.3852 18.2355 27.1455C18.3382 27.0599 19.3484 26.3579 20.9236 26.2381C21.3345 26.2038 21.5742 26.4093 21.6085 26.7688C21.6256 27.1284 21.4715 27.3339 20.9921 27.3681C19.8278 27.4537 18.8176 27.9502 18.6636 28.0187C18.4752 28.1043 18.2184 28.1043 18.0643 27.8475" fill="#FDD000"/><path d="M16.0611 27.8646C16.1981 27.6421 16.1809 27.3852 15.8899 27.1455C15.7871 27.0599 14.777 26.3579 13.2018 26.2381C12.7908 26.2038 12.5511 26.4093 12.5169 26.7688C12.4998 27.1284 12.6539 27.3339 13.1333 27.3681C14.2976 27.4537 15.3077 27.9502 15.4618 28.0187C15.6502 28.1043 15.907 28.1043 16.0611 27.8475" fill="#FDD000"/><path d="M265.61 24.3034H268.675V34.0628H266.586V34.3196C267.305 36.0489 267.305 36.1174 267.613 37.7097H267.767C270.678 37.7097 272.168 37.0248 272.168 34.7819V15.8281H262.032V24.3034H265.627H265.61ZM265.61 18.1053H268.675V18.9785H265.61V18.1053ZM265.61 21.0674H268.675V21.9919H265.61V21.0674Z" fill="black"/><path d="M254.584 31.8886H257.204C257.169 32.2482 257.101 32.5563 257.032 32.7961C256.741 33.7377 255.954 34.8678 255.526 35.2616L258.008 36.9566C259.669 35.3986 260.166 33.4296 260.337 31.8715H262.255V36.7683H265.422V31.8715H267.956V29.1491H265.422V27.8308H267.768V25.1084H254.926V27.8308H257.306C257.306 28.293 257.306 28.7382 257.306 29.1491H254.601V31.8715L254.584 31.8886ZM262.237 27.8479V29.1662H260.405C260.405 28.7553 260.388 28.3102 260.371 27.8479H262.237Z" fill="black"/><path d="M253.95 24.3034H260.645V15.8281H250.492V37.47H253.933V24.3205L253.95 24.3034ZM253.95 18.1053H257.066V18.9785H253.95V18.1053ZM253.95 21.0674H257.066V21.9919H253.95V21.0674Z" fill="black"/><path d="M78.5551 23.842L84.0683 23.5852L86.979 38.0873L91.4477 37.2141L88.674 23.3626L96.4473 23.0202C95.6597 24.6296 94.016 26.7014 92.6291 28.1396L95.9165 30.7935C97.4403 29.184 99.0669 27.0096 100.505 24.8351L100.591 24.6981C101.19 23.7393 101.652 22.8319 101.96 22.1299L99.0498 18.8254H99.0155L87.9035 19.3048L87.0303 15.0586L82.5616 15.9318L83.2978 19.5445L78.3496 19.7671L78.5722 23.842H78.5551Z" fill="black"/><path d="M136.53 28.104V27.6246C137.899 27.9499 138.995 28.241 140.348 28.6176C142.385 29.1827 144.115 29.7477 144.817 29.9531L146.101 25.5871C144.252 25.0392 142.762 24.6283 141.118 24.1831C139.783 23.8236 138.345 23.4811 136.53 23.0531V15.5195H131.838V37.6579H136.53V28.0869V28.104Z" fill="black"/><path d="M152.607 37.1448C159.37 36.4599 162.863 34.8676 165.739 32.4534C170.003 28.8921 171.664 23.1392 172.451 19.595L168.188 18.6533C167.657 21.0504 166.031 27.1286 161.853 29.7311C159.113 31.4261 155.193 32.3849 151.717 32.7616L152.59 37.1448H152.607Z" fill="black"/><path d="M219.313 16.9062H202.756V20.7586H219.313V16.9062Z" fill="black"/><path d="M208.03 30.7578C206.66 32.4871 204.229 33.3432 202.465 33.9082L204.006 37.7777C206.831 37.0072 210.667 35.6032 212.653 32.3843C213.526 30.9804 214.005 29.1312 214.04 27.2821H221.967V23.4297H200.154V27.2821H209.365C209.263 28.6176 208.817 29.7476 208.013 30.7578" fill="black"/><path d="M241.383 34.371C242.034 36.0831 242.513 37.333 242.513 37.333L246.639 35.7749C245.441 32.2479 243.249 27.1627 241.725 23.9096L237.787 25.5362C238.318 26.6319 239.089 28.5153 239.876 30.4843L229.295 31.7C231.281 28.5496 234.705 22.8823 236.914 17.8485L232.617 16.085C229.398 23.3446 224.021 32.2992 224.021 32.2992L225.871 36.2715L241.4 34.3538L241.383 34.371Z" fill="black"/><path d="M277.612 27.745C278.828 27.2313 279.889 26.6834 280.848 26.067H282.578V28.1901H277.544V31.0666H282.389C281.79 33.515 279.77 34.1314 276.705 34.782L278.075 37.5557C281.602 37.1448 285.112 35.3641 286.002 31.0666H288.776C288.793 32.4192 288.81 33.6177 288.81 34.3026C288.81 36.4257 290.008 37.1277 290.608 37.2989C291.293 37.4872 292.816 37.5215 294.101 37.5215C296.172 37.5215 297.234 37.4187 298.073 36.7339C299.032 35.9634 299.237 34.3711 299.323 33.3095C299.323 33.3095 298.655 33.241 298.278 33.1554C296.977 32.8472 296.309 32.3507 296.309 32.3507H296.07C296.052 33.5492 295.898 34.0629 295.265 34.1998C294.974 34.2683 294.323 34.2855 294.049 34.2855C293.45 34.2855 292.851 34.2512 292.714 34.1485C292.457 33.9259 292.44 33.8403 292.44 32.1281V31.0837H298.107V28.2072H292.44V26.0841H295.213C296.429 26.7348 297.628 27.2313 298.484 27.471L299.905 24.5774C299.562 24.4576 298.227 23.9611 296.789 23.2077L299.734 20.2628L297.491 18.191L294.203 21.4955C293.998 21.3243 293.792 21.136 293.621 20.9476C293.553 20.862 293.467 20.7764 293.399 20.6908L296.754 17.3178L294.511 15.2461L291.601 18.1568C291.104 17.3007 290.676 16.4104 290.436 15.6399L287.457 16.4104V15.794H277.424V18.7047H279.616L277.407 20.3826C277.921 21.0161 278.879 22.1975 279.564 23.0878C278.537 23.7898 277.407 24.4233 276.037 25.074L277.612 27.7792V27.745ZM286.225 28.1901V26.067H288.707C288.707 26.6663 288.724 27.3854 288.741 28.1901H286.225ZM287.457 18.6704V17.061C288.176 19.0471 289.666 21.6154 291.19 23.2077C291.19 23.2077 291.224 23.2419 291.241 23.2591H284.204C285.574 21.8208 286.961 20.0402 287.457 18.6704ZM283.793 18.6704C283.314 19.4067 282.663 20.2456 281.944 21.0161C281.396 20.3141 280.626 19.3382 280.078 18.6704H283.793Z" fill="black"/><path d="M183.666 28.2761C181.389 30.365 179.077 31.8888 175.173 34.029L177.399 37.7444C181.115 36.0494 184.505 33.6352 186.731 31.4265C187.004 31.1526 187.278 30.8786 187.535 30.6047C189.83 33.0017 192.141 35.7241 193.836 37.7444L197.26 34.8166C195.48 32.6935 192.655 29.9369 190.138 27.5228C192.501 24.321 193.716 21.4445 194.35 19.5954L192.004 16.873H177.142V21.0679H188.819C188.391 22.3862 186.799 25.451 183.683 28.3104" fill="black"/><path d="M114.854 28.7038C113.261 26.5978 111.292 24.0981 111.292 24.0981L107.748 26.5465C107.748 26.5465 109.837 29.1661 111.892 31.9912C112.936 33.4294 116.206 37.9667 116.206 37.9667L119.802 35.484C119.425 34.9361 118.672 33.8403 117.439 32.1624C120.898 29.3373 124.63 25.2452 126.976 21.1531L124.065 17.8486H104.786V21.8894H121.137C119.716 24.1494 117.062 26.9745 114.854 28.6867" fill="black"/><path d="M151.699 19.7312C152.829 19.8681 156.904 20.3989 158.342 20.7242L159.079 17.0773C157.332 16.6493 154.49 16.1356 152.401 15.9473L151.699 19.7483V19.7312Z" fill="black"/><path d="M151.306 21.8037L150.586 25.6732C152.367 25.8444 155.483 26.2554 157.298 26.5807L157.949 22.7797C156.613 22.4715 153.309 22.0092 151.306 21.8208" fill="black"/></g><defs><clipPath id="clip0_142_267"><rect width="300" height="52.7897" fill="white" transform="translate(0 0.794922)"/></clipPath></defs></svg>