<svg width="251" height="44" fill="none" xmlns="http://www.w3.org/2000/svg"><path d="M0.143555 21.5064C0.143555 7.24974 13.2442 0.0429382 29.7985 0.0429382C46.3527 0.0429382 59.2964 7.24974 59.2964 21.5064C59.2964 35.763 46.3527 42.7985 29.7985 42.9698C13.2585 43.1267 0.143555 35.763 0.143555 21.5064Z" fill="#FDD000"/><path d="M54.9008 16.8683L54.2871 14.3852L54.1302 14.3281L43.5269 18.3668H25.8167V18.1955C25.8167 18.1955 26.1164 17.8958 26.3876 17.2822C26.7443 16.3403 26.9441 15.2414 26.9441 13.9428V7.17838H26.2163L21.9065 11.6452H15.1421L10.8323 7.17838H10.1045V13.9428C10.1045 15.3128 10.3328 16.4973 10.7467 17.482C11.4317 18.9947 12.3022 19.4228 12.3022 19.4228V19.594H11.4174L9.13407 17.2108H8.40625V20.9641C8.40625 22.1343 8.6774 23.0619 9.14834 23.7611C9.61928 24.4747 10.3043 24.9599 11.1034 25.2739C11.5458 25.4451 12.0739 25.5022 12.3165 25.5022V25.6734H9.39094L9.2625 25.8019V27.1291L9.44802 27.3717L12.3022 28.8701V30.9822L10.1901 32.4378L10.1045 32.5948V33.9648L10.2329 34.0933H12.3022C15.6844 34.0647 18.4244 31.3104 18.4244 27.914V25.5593L20.4509 27.9996L18.1818 37.0759L18.3102 37.2043H22.0635L22.2347 37.1472L28.2713 29.8834H38.1325L44.1691 37.1472L44.3403 37.2043H48.0936L48.222 37.0759L44.8398 23.5043L54.8723 17.0681L54.9293 16.8826L54.9008 16.8683Z" fill="black"/><path d="M19.98 15.7837C19.823 15.5268 19.8516 15.2414 20.1798 14.9703C20.294 14.8704 21.4499 14.0712 23.2195 13.9428C23.6762 13.9142 23.9616 14.1283 23.9901 14.5422C24.0187 14.9417 23.8332 15.1843 23.2909 15.2272C21.9779 15.3271 20.8363 15.8836 20.6508 15.9692C20.4367 16.0549 20.1513 16.0549 19.98 15.7837Z" fill="#FDD000"/><path d="M17.0832 15.7837C17.2402 15.5268 17.2117 15.2414 16.8835 14.9703C16.7693 14.8704 15.6133 14.0712 13.8438 13.9428C13.3871 13.9142 13.1017 14.1283 13.0731 14.5422C13.0446 14.9417 13.2301 15.1843 13.7724 15.2272C15.0853 15.3271 16.227 15.8836 16.4125 15.9692C16.6266 16.0549 16.912 16.0549 17.0832 15.7837Z" fill="#FDD000"/><path d="M15.0564 22.5624C14.9422 22.3768 14.9565 22.1628 15.1991 21.963C15.2847 21.8916 16.1267 21.3065 17.4396 21.2066C17.7821 21.1781 17.9819 21.3493 18.0104 21.649C18.0247 21.9487 17.8963 22.12 17.4967 22.1485C16.5263 22.2199 15.6843 22.6337 15.5558 22.6908C15.3989 22.7622 15.1848 22.7622 15.0564 22.5481" fill="#FDD000"/><path d="M13.3868 22.5624C13.5009 22.3768 13.4867 22.1628 13.2441 21.963C13.1584 21.8916 12.3165 21.3065 11.0035 21.2066C10.661 21.1781 10.4612 21.3493 10.4327 21.649C10.4184 21.9487 10.5469 22.12 10.9464 22.1485C11.9169 22.2199 12.7589 22.6337 12.8873 22.6908C13.0443 22.7622 13.2583 22.7622 13.3868 22.5481" fill="#FDD000"/><path d="M221.385 19.594H223.939V27.7284H222.198V27.9425C222.798 29.3839 222.798 29.4409 223.055 30.7681H223.183C225.609 30.7681 226.851 30.1973 226.851 28.3278V12.5299H218.402V19.594H221.399H221.385ZM221.385 14.428H223.939V15.1558H221.385V14.428ZM221.385 16.8968H223.939V17.6675H221.385V16.8968Z" fill="#FDFDFD"/><path d="M212.195 25.916H214.378C214.35 26.2157 214.293 26.4726 214.236 26.6724C213.993 27.4573 213.336 28.3992 212.98 28.7274L215.049 30.1402C216.433 28.8416 216.847 27.2004 216.99 25.9018H218.588V29.9832H221.228V25.9018H223.34V23.6327H221.228V22.5338H223.183V20.2648H212.48V22.5338H214.464C214.464 22.9192 214.464 23.2902 214.464 23.6327H212.209V25.9018L212.195 25.916ZM218.574 22.5481V23.647H217.047C217.047 23.3045 217.033 22.9334 217.018 22.5481H218.574Z" fill="#FDFDFD"/><path d="M211.666 19.594H217.246V12.5299H208.784V30.5683H211.652V19.6083L211.666 19.594ZM211.666 14.428H214.264V15.1558H211.666V14.428ZM211.666 16.8968H214.264V17.6675H211.666V16.8968Z" fill="#FDFDFD"/><path d="M65.4754 19.2087L70.0707 18.9947L72.4967 31.0821L76.2214 30.3543L73.9095 18.8091L80.3885 18.5237C79.7321 19.8652 78.3621 21.592 77.2061 22.7907L79.9461 25.0027C81.2162 23.6612 82.572 21.8488 83.7707 20.0364L83.8421 19.9223C84.3416 19.1231 84.7269 18.3667 84.9838 17.7816L82.5577 15.0274H82.5292L73.2674 15.4269L72.5395 11.8878L68.8148 12.6156L69.4285 15.6267L65.3042 15.8123L65.4897 19.2087H65.4754Z" fill="#FDFDFD"/><path d="M113.797 22.7622V22.3626C114.939 22.6337 115.852 22.8763 116.979 23.1903C118.678 23.6612 120.119 24.1322 120.704 24.3034L121.774 20.6644C120.233 20.2077 118.992 19.8652 117.622 19.4941C116.508 19.1945 115.31 18.909 113.797 18.5523V12.2731H109.887V30.7253H113.797V22.7479V22.7622Z" fill="#FDFDFD"/><path d="M127.197 30.2972C132.834 29.7264 135.745 28.3992 138.143 26.387C141.696 23.4186 143.081 18.6236 143.737 15.6695L140.184 14.8846C139.741 16.8826 138.386 21.9487 134.903 24.1179C132.62 25.5307 129.352 26.3299 126.455 26.6439L127.183 30.2972H127.197Z" fill="#FDFDFD"/><path d="M182.797 13.429H168.997V16.64H182.797V13.429Z" fill="#FDFDFD"/><path d="M173.392 24.9742C172.251 26.4155 170.224 27.1291 168.754 27.6L170.039 30.8252C172.393 30.183 175.59 29.0128 177.245 26.3299C177.973 25.1597 178.373 23.6184 178.401 22.0772H185.009V18.8662H166.828V22.0772H174.505C174.42 23.1903 174.049 24.1322 173.378 24.9742" fill="#FDFDFD"/><path d="M201.192 27.9853C201.734 29.4124 202.134 30.4542 202.134 30.4542L205.573 29.1555C204.574 26.2157 202.747 21.9773 201.477 19.2658L198.195 20.6215C198.637 21.5349 199.28 23.1047 199.936 24.7458L191.117 25.7591C192.772 23.1332 195.626 18.4096 197.467 14.2139L193.885 12.744C191.202 18.7949 186.721 26.2585 186.721 26.2585L188.262 29.5694L201.206 27.9711L201.192 27.9853Z" fill="#FDFDFD"/><path d="M231.389 22.4625C232.402 22.0344 233.287 21.5777 234.086 21.0639H235.528V22.8335H231.332V25.231H235.371C234.871 27.2718 233.187 27.7855 230.633 28.3278L231.774 30.6397C234.714 30.2972 237.64 28.813 238.382 25.231H240.694C240.708 26.3584 240.722 27.3574 240.722 27.9282C240.722 29.6978 241.721 30.2829 242.221 30.4256C242.792 30.5826 244.062 30.6112 245.132 30.6112C246.859 30.6112 247.744 30.5255 248.443 29.9547C249.242 29.3125 249.413 27.9853 249.485 27.1005C249.485 27.1005 248.928 27.0434 248.614 26.9721C247.529 26.7152 246.973 26.3014 246.973 26.3014H246.773C246.759 27.3003 246.63 27.7284 246.102 27.8426C245.86 27.8997 245.317 27.914 245.089 27.914C244.59 27.914 244.09 27.8854 243.976 27.7998C243.762 27.6143 243.748 27.5429 243.748 26.1158V25.2453H248.471V22.8478H243.748V21.0782H246.06C247.073 21.6205 248.072 22.0344 248.785 22.2342L249.97 19.8224C249.684 19.7225 248.571 19.3086 247.373 18.6807L249.827 16.2261L247.958 14.4993L245.218 17.2536C245.046 17.1109 244.875 16.9539 244.732 16.7969C244.675 16.7256 244.604 16.6542 244.547 16.5829L247.344 13.7715L245.474 12.0447L243.048 14.4708C242.635 13.7572 242.278 13.0152 242.078 12.373L239.595 13.0152V12.5014H231.232V14.9275H233.059L231.218 16.326C231.646 16.854 232.445 17.8387 233.016 18.5808C232.16 19.1659 231.218 19.6939 230.076 20.2362L231.389 22.491V22.4625ZM238.567 22.8335V21.0639H240.637C240.637 21.5634 240.651 22.1628 240.665 22.8335H238.567ZM239.595 14.8989V13.5575C240.194 15.2129 241.436 17.3535 242.706 18.6807C242.706 18.6807 242.734 18.7092 242.749 18.7235H236.883C238.025 17.5248 239.181 16.0406 239.595 14.8989ZM236.541 14.8989C236.141 15.5126 235.599 16.2118 235 16.854C234.543 16.2689 233.901 15.4555 233.444 14.8989H236.541Z" fill="#FDFDFD"/><path d="M153.085 22.9049C151.187 24.6459 149.26 25.916 146.006 27.6999L147.862 30.7967C150.958 29.3839 153.784 27.3717 155.639 25.5307C155.868 25.3024 156.096 25.0741 156.31 24.8457C158.222 26.8437 160.149 29.1127 161.562 30.7967L164.416 28.3564C162.932 26.5868 160.577 24.2892 158.479 22.277C160.448 19.6083 161.462 17.2108 161.99 15.6696L160.035 13.4005H147.648V16.8969H157.38C157.023 17.9957 155.696 20.5502 153.099 22.9334" fill="#FDFDFD"/><path d="M95.7297 23.2617C94.4025 21.5064 92.7613 19.4228 92.7613 19.4228L89.8072 21.4635C89.8072 21.4635 91.5483 23.647 93.2608 26.0017C94.1313 27.2004 96.8571 30.9822 96.8571 30.9822L99.854 28.9129C99.54 28.4563 98.9121 27.5429 97.8846 26.1444C100.767 23.7897 103.878 20.379 105.833 16.9682L103.407 14.2139H87.3384V17.5819H100.967C99.7826 19.4656 97.5706 21.8203 95.7297 23.2474" fill="#FDFDFD"/><path d="M126.441 15.7837C127.383 15.8979 130.779 16.3403 131.978 16.6114L132.592 13.5717C131.136 13.215 128.767 12.7868 127.026 12.6299L126.441 15.798V15.7837Z" fill="#FDFDFD"/><path d="M126.113 17.5105L125.513 20.7357C126.997 20.8784 129.595 21.2209 131.107 21.4921L131.65 18.3239C130.537 18.0671 127.782 17.6817 126.113 17.5248" fill="#FDFDFD"/></svg>